PathFileType	4	(X/Y/Z)	./001.trc	
DataRate	CameraRate	NumFrames	NumMarkers	Units	OrigDataRate	OrigDataStartFrame	OrigNumFrames	
180	180	4	0	mm	180	476	951	
Frame#	Time	LIAS			RIAS			LIPS			RIPS			LFTC			RFTC			CV7			SJN			TV2			SXS			TV7			LAH			RAH			LPH			RPH			LHGT			LCAJ			LHLE			LUA			LHM2			LUSP			LRSP			RHGT			RCAJ			RHLE			RHME			RUA			RHM2			RUSP			RRSP			LFLE			LTH			LFAL			LTAM			LSK			LFAX			LTTC			LFM5			LFM2			LFM1			LFCC			LDP1			RFLE			RFME			RTH			RFAL			RTAM			RSK			RFAX			RTTC			RFM5			RFM2			RFM1			RFCC			RDP1			LHME				
		X1	Y1	Z1	X2	Y2	Z2	X3	Y3	Z3	X4	Y4	Z4	X5	Y5	Z5	X6	Y6	Z6	X7	Y7	Z7	X8	Y8	Z8	X9	Y9	Z9	X10	Y10	Z10	X11	Y11	Z11	X12	Y12	Z12	X13	Y13	Z13	X14	Y14	Z14	X15	Y15	Z15	X16	Y16	Z16	X17	Y17	Z17	X18	Y18	Z18	X19	Y19	Z19	X20	Y20	Z20	X21	Y21	Z21	X22	Y22	Z22	X23	Y23	Z23	X24	Y24	Z24	X25	Y25	Z25	X26	Y26	Z26	X27	Y27	Z27	X28	Y28	Z28	X29	Y29	Z29	X30	Y30	Z30	X31	Y31	Z31	X32	Y32	Z32	X33	Y33	Z33	X34	Y34	Z34	X35	Y35	Z35	X36	Y36	Z36	X37	Y37	Z37	X38	Y38	Z38	X39	Y39	Z39	X40	Y40	Z40	X41	Y41	Z41	X42	Y42	Z42	X43	Y43	Z43	X44	Y44	Z44	X45	Y45	Z45	X46	Y46	Z46	X47	Y47	Z47	X48	Y48	Z48	X49	Y49	Z49	X50	Y50	Z50	X51	Y51	Z51	X52	Y52	Z52	X53	Y53	Z53	X54	Y54	Z54	X55	Y55	Z55	X56	Y56	Z56		
	
4.760000000000000000e+02	2.638888999999999818e+00	4.483999999999999631e+01	9.416920000000000073e+02	-9.387999999999999901e+00	-1.832340000000000089e+02	9.361720000000000255e+02	-3.759300000000000352e+01	2.036900000000000333e+01	9.869780000000000655e+02	-2.617689999999999486e+02	-8.860500000000000398e+01	9.869299999999999500e+02	-2.713919999999999959e+02	1.510150000000000148e+02	8.303369999999999891e+02	-6.264799999999999613e+01	-2.343710000000000093e+02	8.087330000000000609e+02	-1.389389999999999930e+02	-4.581899999999999551e+01	1.362673999999999978e+03	-3.079720000000000368e+02	-7.195300000000000296e+01	1.347866999999999962e+03	-1.267050000000000125e+02	-4.453499999999999659e+01	1.270923000000000002e+03	-3.283050000000000068e+02	-7.361299999999999955e+01	1.254272999999999911e+03	-5.682500000000000284e+01	-5.027199999999999847e+01	1.142085000000000036e+03	-3.139549999999999841e+02	-2.336799999999999855e+01	1.611650000000000091e+03	-2.590960000000000036e+02	-1.274159999999999968e+02	1.597247000000000071e+03	-1.733719999999999857e+02	-5.190999999999999659e+01	1.537992999999999938e+03	-3.327160000000000082e+02	-1.737229999999999848e+02	1.531760999999999967e+03	-2.590889999999999986e+02	8.730899999999999750e+01	1.254943999999999960e+03	-3.062839999999999918e+02	1.225460000000000065e+02	1.362862000000000080e+03	-2.019390000000000214e+02	3.384340000000000259e+02	1.159836000000000013e+03	-2.171810000000000116e+02	2.383349999999999795e+02	1.193913000000000011e+03	-2.707309999999999945e+02	3.224359999999999786e+02	9.671760000000000446e+02	5.509700000000000131e+01	3.004850000000000136e+02	9.727820000000000391e+02	-5.110999999999999943e+01	3.170629999999999882e+02	1.027010999999999967e+03	2.173200000000000287e+01	-1.765319999999999823e+02	1.268929999999999836e+03	-3.480910000000000082e+02	-1.569629999999999939e+02	1.370576000000000022e+03	-2.751730000000000018e+02	-4.313969999999999914e+02	1.385909000000000106e+03	-3.362459999999999809e+02	-4.691150000000000091e+02	1.340611000000000104e+03	-2.283799999999999955e+02	-3.507789999999999964e+02	1.295933999999999969e+03	-3.323890000000000100e+02	-3.185830000000000268e+02	1.621216999999999871e+03	-2.356379999999999768e+02	-4.012419999999999618e+02	1.587140999999999849e+03	-1.986999999999999886e+02	-3.224170000000000300e+02	1.540839999999999918e+03	-1.958310000000000173e+02	2.062330000000000041e+02	4.721190000000000282e+02	-4.097800000000000153e+01	1.321799999999999784e+02	5.897069999999999936e+02	5.875699999999999790e+01	2.242990000000000066e+02	1.185340000000000060e+02	-2.707199999999999918e+01	1.426219999999999857e+02	1.213680000000000092e+02	4.325099999999999767e+01	2.005280000000000200e+02	3.026560000000000059e+02	3.822200000000000131e+01	2.113260000000000218e+02	4.077710000000000150e+02	-6.898700000000000898e+01	1.530759999999999934e+02	4.541140000000000327e+02	5.813400000000000034e+01	2.954319999999999595e+02	6.492399999999999238e+01	6.948799999999999955e+01	2.613820000000000050e+02	7.824800000000000466e+01	9.948899999999999011e+01	2.163040000000000020e+02	6.074000000000000199e+01	1.240889999999999986e+02	1.368830000000000098e+02	9.025800000000000978e+01	-6.837199999999999989e+01	2.531719999999999970e+02	5.399000000000000199e+01	1.620240000000000009e+02	-7.231499999999999773e+01	4.240999999999999659e+02	-1.936599999999999966e+02	5.180799999999999983e+01	4.364390000000000214e+02	2.139999999999999958e-01	-2.030629999999999882e+02	6.391630000000000109e+02	-7.948700000000000898e+01	-2.085019999999999811e+02	1.764939999999999998e+02	-2.791359999999999673e+02	-1.206910000000000025e+02	1.022519999999999953e+02	-2.862880000000000109e+02	-2.127789999999999964e+02	1.788460000000000036e+02	-2.785720000000000027e+02	-2.170540000000000020e+02	4.046059999999999945e+02	-2.109039999999999964e+02	-2.069070000000000107e+02	3.845980000000000132e+02	-1.651519999999999868e+02	-2.728410000000000082e+02	5.470199999999999818e+01	-2.989410000000000309e+02	-2.519239999999999782e+02	6.557800000000000296e+01	-2.514660000000000366e+02	-2.256499999999999773e+02	5.718700000000000472e+01	-2.168360000000000127e+02	-1.092159999999999940e+02	7.607600000000000762e+01	-4.106220000000000141e+02	-2.508159999999999741e+02	5.030199999999999960e+01	-1.724240000000000066e+02	2.353799999999999955e+02	1.099050000000000182e+03	-2.134320000000000164e+02
4.770000000000000000e+02	2.644444000000000017e+00	5.009799999999999898e+01	9.410529999999999973e+02	-8.371999999999999886e+00	-1.783260000000000218e+02	9.368239999999999554e+02	-3.272599999999999909e+01	2.140099999999999980e+01	9.864950000000000045e+02	-2.607689999999999486e+02	-8.778199999999999648e+01	9.869590000000000600e+02	-2.677099999999999795e+02	1.547880000000000109e+02	8.292150000000000318e+02	-6.323799999999999955e+01	-2.316779999999999973e+02	8.085969999999999800e+02	-1.335459999999999923e+02	-4.374200000000000443e+01	1.361672000000000025e+03	-3.061550000000000296e+02	-6.555700000000000216e+01	1.347838999999999942e+03	-1.246000000000000085e+02	-4.345199999999999818e+01	1.269855000000000018e+03	-3.263550000000000182e+02	-6.679300000000000637e+01	1.254385999999999967e+03	-5.397500000000000142e+01	-4.974699999999999989e+01	1.141138999999999896e+03	-3.108509999999999991e+02	-1.964700000000000202e+01	1.611249000000000024e+03	-2.572930000000000064e+02	-1.238469999999999942e+02	1.596997000000000071e+03	-1.714140000000000157e+02	-4.827599999999999625e+01	1.537492999999999938e+03	-3.307780000000000200e+02	-1.699910000000000139e+02	1.531261999999999944e+03	-2.569359999999999786e+02	8.889000000000000057e+01	1.253160000000000082e+03	-3.069710000000000036e+02	1.270370000000000061e+02	1.361372000000000071e+03	-2.038639999999999759e+02	3.411709999999999923e+02	1.156443999999999960e+03	-2.211709999999999923e+02	2.407899999999999920e+02	1.191349999999999909e+03	-2.743070000000000164e+02	3.162960000000000491e+02	9.705080000000000382e+02	5.546700000000000585e+01	2.969339999999999691e+02	9.742950000000000728e+02	-5.111099999999999710e+01	3.144569999999999936e+02	1.029852000000000089e+03	2.042699999999999960e+01	-1.760230000000000246e+02	1.268585000000000036e+03	-3.430750000000000455e+02	-1.537489999999999952e+02	1.370416999999999916e+03	-2.712280000000000086e+02	-4.297549999999999955e+02	1.387632999999999811e+03	-3.253439999999999941e+02	-4.647510000000000332e+02	1.344325000000000045e+03	-2.155589999999999975e+02	-3.498839999999999577e+02	1.297115999999999985e+03	-3.226929999999999836e+02	-3.137379999999999995e+02	1.623182999999999993e+03	-2.343129999999999882e+02	-3.954420000000000073e+02	1.591864000000000033e+03	-1.931920000000000073e+02	-3.169460000000000264e+02	1.545028999999999996e+03	-1.910120000000000005e+02	2.074660000000000082e+02	4.707700000000000387e+02	-4.094299999999999784e+01	1.357750000000000057e+02	5.891849999999999454e+02	5.932200000000000273e+01	2.231419999999999959e+02	1.174759999999999991e+02	-2.606299999999999883e+01	1.419130000000000109e+02	1.205469999999999970e+02	4.497299999999999898e+01	2.013530000000000086e+02	3.013029999999999973e+02	3.877400000000000091e+01	2.113160000000000025e+02	4.062230000000000132e+02	-6.855899999999999750e+01	1.555550000000000068e+02	4.535600000000000023e+02	5.933299999999999841e+01	2.952769999999999868e+02	6.499599999999999511e+01	6.965999999999999659e+01	2.612520000000000095e+02	7.825300000000000011e+01	9.993899999999999295e+01	2.164979999999999905e+02	6.053800000000000381e+01	1.248870000000000005e+02	1.352760000000000105e+02	9.044400000000000261e+01	-6.635800000000000409e+01	2.539310000000000116e+02	5.378600000000000136e+01	1.625870000000000175e+02	-7.165100000000001046e+01	4.234859999999999900e+02	-1.909720000000000084e+02	5.347299999999999898e+01	4.364259999999999877e+02	2.945999999999999730e+00	-1.997700000000000102e+02	6.388940000000000055e+02	-7.507900000000000773e+01	-2.085099999999999909e+02	1.766790000000000020e+02	-2.778209999999999695e+02	-1.209390000000000072e+02	1.026829999999999927e+02	-2.858930000000000291e+02	-2.130070000000000050e+02	1.791659999999999968e+02	-2.771850000000000023e+02	-2.166719999999999970e+02	4.053209999999999695e+02	-2.089029999999999916e+02	-2.058550000000000182e+02	3.843389999999999986e+02	-1.618970000000000198e+02	-2.730880000000000223e+02	5.475099999999999767e+01	-2.987939999999999827e+02	-2.521680000000000064e+02	6.557599999999999341e+01	-2.513119999999999834e+02	-2.258310000000000173e+02	5.710199999999999676e+01	-2.167659999999999911e+02	-1.096749999999999972e+02	7.723699999999999477e+01	-4.104789999999999850e+02	-2.508619999999999663e+02	5.024000000000000199e+01	-1.723789999999999907e+02	2.369479999999999791e+02	1.097039999999999964e+03	-2.165759999999999934e+02
4.780000000000000000e+02	2.649999999999999911e+00	5.549799999999999756e+01	9.403679999999999382e+02	-7.491000000000000547e+00	-1.732789999999999964e+02	9.374800000000000182e+02	-2.788300000000000267e+01	2.239999999999999858e+01	9.859719999999999800e+02	-2.588690000000000282e+02	-8.695999999999999375e+01	9.870149999999999864e+02	-2.640819999999999936e+02	1.587040000000000077e+02	8.280349999999999682e+02	-6.398900000000000432e+01	-2.288669999999999902e+02	8.085170000000000528e+02	-1.281690000000000111e+02	-4.169400000000000261e+01	1.360626999999999953e+03	-3.043089999999999691e+02	-5.936399999999999721e+01	1.347788000000000011e+03	-1.223610000000000042e+02	-4.235699999999999932e+01	1.268785000000000082e+03	-3.243700000000000045e+02	-5.959400000000000119e+01	1.254609999999999900e+03	-5.114900000000000091e+01	-4.909999999999999432e+01	1.140163000000000011e+03	-3.078330000000000268e+02	-1.589000000000000057e+01	1.610859999999999900e+03	-2.554519999999999982e+02	-1.196330000000000098e+02	1.596432999999999993e+03	-1.693209999999999980e+02	-4.453600000000000136e+01	1.537006000000000085e+03	-3.288189999999999600e+02	-1.661260000000000048e+02	1.530752999999999929e+03	-2.547489999999999952e+02	9.042900000000000205e+01	1.251351000000000113e+03	-3.077189999999999941e+02	1.314579999999999984e+02	1.359740000000000009e+03	-2.058300000000000125e+02	3.436989999999999554e+02	1.152822000000000116e+03	-2.248729999999999905e+02	2.432379999999999995e+02	1.188612999999999829e+03	-2.775190000000000055e+02	3.100370000000000346e+02	9.743969999999999345e+02	5.610300000000000153e+01	2.922379999999999995e+02	9.760159999999999627e+02	-5.114699999999999847e+01	3.117199999999999704e+02	1.032835000000000036e+03	1.921499999999999986e+01	-1.755190000000000055e+02	1.268211000000000013e+03	-3.379130000000000109e+02	-1.505589999999999975e+02	1.370210000000000036e+03	-2.671339999999999577e+02	-4.280389999999999873e+02	1.389347000000000207e+03	-3.137490000000000236e+02	-4.599790000000000418e+02	1.348074000000000069e+03	-2.021749999999999829e+02	-3.489680000000000177e+02	1.298284999999999854e+03	-3.125129999999999768e+02	-3.091459999999999582e+02	1.624833999999999833e+03	-2.328890000000000100e+02	-3.894770000000000323e+02	1.596907999999999902e+03	-1.872839999999999918e+02	-3.114879999999999995e+02	1.549171000000000049e+03	-1.860209999999999866e+02	2.085169999999999959e+02	4.694950000000000045e+02	-4.014700000000000557e+01	1.392210000000000036e+02	5.887210000000000036e+02	5.993299999999999983e+01	2.222220000000000084e+02	1.167349999999999994e+02	-2.498999999999999844e+01	1.412529999999999859e+02	1.193560000000000088e+02	4.654200000000000159e+01	2.021670000000000016e+02	3.000809999999999604e+02	3.983500000000000085e+01	2.117960000000000207e+02	4.047839999999999918e+02	-6.785900000000000887e+01	1.578650000000000091e+02	4.529389999999999645e+02	6.061899999999999977e+01	2.951129999999999995e+02	6.515899999999999181e+01	7.012500000000000000e+01	2.610040000000000191e+02	7.826700000000001012e+01	1.004889999999999901e+02	2.166690000000000111e+02	6.035399999999999920e+01	1.257419999999999902e+02	1.341659999999999968e+02	9.065200000000000102e+01	-6.470699999999999363e+01	2.545669999999999789e+02	5.324699999999999989e+01	1.633249999999999886e+02	-7.096500000000000341e+01	4.228700000000000045e+02	-1.882369999999999948e+02	5.554400000000000404e+01	4.363600000000000136e+02	5.133999999999999453e+00	-1.963750000000000000e+02	6.386929999999999836e+02	-7.067400000000000659e+01	-2.086580000000000155e+02	1.769139999999999873e+02	-2.764399999999999977e+02	-1.212300000000000040e+02	1.031029999999999944e+02	-2.855059999999999718e+02	-2.132340000000000089e+02	1.795090000000000146e+02	-2.757540000000000191e+02	-2.162890000000000157e+02	4.060649999999999977e+02	-2.068830000000000098e+02	-2.047860000000000014e+02	3.840889999999999986e+02	-1.586189999999999998e+02	-2.733550000000000182e+02	5.480499999999999972e+01	-2.986589999999999918e+02	-2.524230000000000018e+02	6.557399999999999807e+01	-2.511570000000000107e+02	-2.260439999999999827e+02	5.702499999999999858e+01	-2.166910000000000025e+02	-1.102180000000000035e+02	7.853400000000000603e+01	-4.103059999999999832e+02	-2.509140000000000157e+02	5.017000000000000171e+01	-1.723300000000000125e+02	2.383899999999999864e+02	1.094846000000000004e+03	-2.195739999999999839e+02
4.790000000000000000e+02	2.655555999999999806e+00	6.103399999999999892e+01	9.396150000000000091e+02	-6.713000000000000078e+00	-1.680589999999999975e+02	9.381209999999999809e+02	-2.299699999999999989e+01	2.339900000000000091e+01	9.854159999999999400e+02	-2.573860000000000241e+02	-8.607800000000000296e+01	9.870910000000000082e+02	-2.604330000000000496e+02	1.624590000000000032e+02	8.270000000000000000e+02	-6.473799999999999955e+01	-2.259650000000000034e+02	8.083959999999999582e+02	-1.227860000000000014e+02	-3.968900000000000006e+01	1.359558999999999969e+03	-3.024299999999999500e+02	-5.318500000000000227e+01	1.347703000000000202e+03	-1.202300000000000040e+02	-4.134299999999999642e+01	1.267678000000000111e+03	-3.223589999999999804e+02	-5.230700000000000216e+01	1.254710000000000036e+03	-4.838199999999999790e+01	-4.849799999999999756e+01	1.139177000000000135e+03	-3.047489999999999668e+02	-1.206600000000000072e+01	1.610444999999999936e+03	-2.535589999999999691e+02	-1.157330000000000041e+02	1.596007000000000062e+03	-1.673240000000000123e+02	-4.080499999999999972e+01	1.536529999999999973e+03	-3.268570000000000277e+02	-1.622510000000000048e+02	1.530238000000000056e+03	-2.526519999999999868e+02	9.192900000000000205e+01	1.249529999999999973e+03	-3.084479999999999791e+02	1.359809999999999945e+02	1.358004999999999882e+03	-2.078810000000000002e+02	3.460840000000000032e+02	1.149057999999999993e+03	-2.282669999999999959e+02	2.455920000000000130e+02	1.185669000000000096e+03	-2.806510000000000105e+02	3.036659999999999968e+02	9.789499999999999318e+02	5.674900000000000233e+01	2.881680000000000064e+02	9.785180000000000291e+02	-5.022700000000000387e+01	3.084750000000000227e+02	1.036497999999999820e+03	1.832799999999999940e+01	-1.750070000000000050e+02	1.267829000000000178e+03	-3.325509999999999877e+02	-1.472430000000000234e+02	1.369894999999999982e+03	-2.627570000000000050e+02	-4.261719999999999686e+02	1.391029999999999973e+03	-3.016619999999999777e+02	-4.548149999999999977e+02	1.351830999999999904e+03	-1.882460000000000093e+02	-3.480039999999999623e+02	1.299495000000000118e+03	-3.019039999999999964e+02	-3.047920000000000300e+02	1.626149000000000115e+03	-2.313109999999999786e+02	-3.835889999999999986e+02	1.601769999999999982e+03	-1.814030000000000200e+02	-3.060379999999999541e+02	1.553285000000000082e+03	-1.808870000000000005e+02	2.098049999999999784e+02	4.683580000000000041e+02	-3.943099999999999739e+01	1.425399999999999920e+02	5.883060000000000400e+02	6.058800000000000097e+01	2.216740000000000066e+02	1.163460000000000036e+02	-2.397599999999999909e+01	1.404540000000000077e+02	1.181580000000000013e+02	4.760900000000000176e+01	2.030579999999999927e+02	2.988319999999999936e+02	4.090499999999999403e+01	2.122930000000000064e+02	4.034039999999999964e+02	-6.679499999999998749e+01	1.601100000000000136e+02	4.523449999999999704e+02	6.201400000000000290e+01	2.949230000000000018e+02	6.539600000000000080e+01	7.059999999999999432e+01	2.606390000000000100e+02	7.814200000000001012e+01	1.011289999999999907e+02	2.163880000000000052e+02	6.005300000000000438e+01	1.261710000000000065e+02	1.337500000000000000e+02	9.068500000000000227e+01	-6.385799999999999699e+01	2.545540000000000020e+02	5.287900000000000489e+01	1.638050000000000068e+02	-7.032200000000000273e+01	4.223020000000000209e+02	-1.854300000000000068e+02	5.701800000000000068e+01	4.364010000000000105e+02	7.660000000000000142e+00	-1.929810000000000230e+02	6.384750000000000227e+02	-6.627299999999999613e+01	-2.087779999999999916e+02	1.772139999999999986e+02	-2.751009999999999991e+02	-1.215959999999999894e+02	1.036379999999999910e+02	-2.851539999999999964e+02	-2.134569999999999936e+02	1.798750000000000000e+02	-2.742789999999999964e+02	-2.159059999999999775e+02	4.068379999999999654e+02	-2.048439999999999941e+02	-2.036989999999999839e+02	3.838460000000000036e+02	-1.553190000000000168e+02	-2.736669999999999732e+02	5.484100000000000108e+01	-2.985099999999999909e+02	-2.527209999999999752e+02	6.555199999999999250e+01	-2.509950000000000330e+02	-2.262639999999999816e+02	5.693900000000000006e+01	-2.166200000000000045e+02	-1.108129999999999882e+02	7.990500000000000114e+01	-4.101399999999999864e+02	-2.509689999999999941e+02	5.012400000000000233e+01	-1.723030000000000257e+02	2.396030000000000086e+02	1.092486000000000104e+03	-2.223499999999999943e+02
